<svg width="403" height="318" viewBox="0 0 403 318" fill="none" xmlns="http://www.w3.org/2000/svg">
<path d="M0 -543H756V-45.0623C756 -45.0623 638.573 -45.0622 617.707 15.5436C596.842 76.1495 488.634 146.937 488.634 146.937C488.634 146.937 304.729 215.785 244.074 181.361C183.42 146.937 214.96 93.1191 173.23 15.5436C131.499 -62.0319 230.039 -117.275 227.576 -206.516C225.839 -269.481 220.202 -307.21 193.125 -364.091C148.948 -456.893 0 -543 0 -543Z" fill="#6C99CD"/>
<path d="M133 -192H753V153.979C753 153.979 656.697 153.979 639.585 196.089C622.474 238.199 533.732 287.384 533.732 287.384C533.732 287.384 382.91 335.221 333.167 311.303C283.424 287.384 309.29 249.99 275.067 196.089C240.843 142.188 321.656 103.803 319.637 41.7966C318.212 -1.95247 313.589 -28.1677 291.383 -67.6903C255.153 -132.171 133 -192 133 -192Z" fill="#D9BBEF"/>
</svg>
